HIERARCHY
ROOT Hips
{
  OFFSET 31.3009 104.81 31.1864
  CHANNELS 6 Xposition Yposition Zposition Zrotation Xrotation Yrotation
  JOINT RightUpLeg
  {
    OFFSET -8.9458 -8.66707 0.101652
    CHANNELS 3 Zrotation Xrotation Yrotation
    JOINT RightLeg
    {
      OFFSET 0 -44.4227 1.3727
      CHANNELS 3 Zrotation Xrotation Yrotation
      JOINT RightFoot
      {
        OFFSET 0.253549 -42.0924 -1.46059
        CHANNELS 3 Zrotation Xrotation Yrotation
        JOINT RightToes
        {
          OFFSET 0.04 -4.41509 8.4991
          CHANNELS 3 Zrotation Xrotation Yrotation
          End Site
          {
            OFFSET -0.08 -0.137448 9.77979
          }
        }
      }
    }
  }
  JOINT Spine
  {
    OFFSET 0 11.8905 0
    CHANNELS 3 Zrotation Xrotation Yrotation
    JOINT Spine1
    {
      OFFSET 0 25.6574 0.127663
      CHANNELS 3 Zrotation Xrotation Yrotation
      JOINT HEad
      {
        OFFSET 0 8.73416 0.011341
        CHANNELS 3 Zrotation Xrotation Yrotation
        End Site
        {
          OFFSET -0.29 12.7742 2.51395
        }
      }
      JOINT LeftShoulder1
      {
        OFFSET 8.99 -0.362252 -0.22
        CHANNELS 3 Zrotation Xrotation Yrotation
        JOINT LeftArm
        {
          OFFSET 10.2827 -0.00338 0.322123
          CHANNELS 3 Zrotation Xrotation Yrotation
          JOINT LeftForeArm
          {
            OFFSET 32.7669 0.099144 -1.42434
            CHANNELS 3 Zrotation Xrotation Yrotation
            JOINT LeftHand
            {
              OFFSET 27.5643 0.085362 1.02216
              CHANNELS 3 Zrotation Xrotation Yrotation
              End Site
              {
                OFFSET 16.7443 -0.6 1.50291
              }
            }
          }
        }
      }
      JOINT RightShoulder
      {
        OFFSET -8.99 -0.362252 -0.22
        CHANNELS 3 Zrotation Xrotation Yrotation
        JOINT RightArm
        {
          OFFSET -10.2827 -0.00338 0.322123
          CHANNELS 3 Zrotation Xrotation Yrotation
          JOINT RightForeArm
          {
            OFFSET -32.8971 0.099144 -1.42434
            CHANNELS 3 Zrotation Xrotation Yrotation
            JOINT RightHand
            {
              OFFSET -27.4921 0.085362 1.02216
              CHANNELS 3 Zrotation Xrotation Yrotation
              End Site
              {
                OFFSET -16.6312 -0.6 1.50291
              }
            }
          }
        }
      }
    }
  }
  JOINT LeftUpLeg
  {
    OFFSET 8.9458 -8.66707 0.101652
    CHANNELS 3 Zrotation Xrotation Yrotation
    JOINT LeftLeg
    {
      OFFSET 0 -44.4227 1.3727
      CHANNELS 3 Zrotation Xrotation Yrotation
      JOINT LeftFoot
      {
        OFFSET -0.253549 -42.0924 -1.46059
        CHANNELS 3 Zrotation Xrotation Yrotation
        JOINT LeftToes
        {
          OFFSET -0.04 -4.41509 8.4991
          CHANNELS 3 Zrotation Xrotation Yrotation
          End Site
          {
            OFFSET 0.08 -0.047448 9.77979
          }
        }
      }
    }
  }
}
MOTION
Frames:	16
Frame Time:	0.0166667
90.7602 86.1101 -10.2398 9.5734 -4.37047 152.942 -17.236 -21.5452 -9.49134 -12.4623 9.41673 18.5682 33.7454 36.8103 -13.3821 -26.0794 -44.8205 3.94115 1.44666 7.33059 0.0653875 9.69646 14.3321 -0.465945 0.630328 -10.9379 29.6572 1.59028e-015 0 -0 -2.63688 -22.923 -8.54958 -35.9822 -22.7683 -51.9818 -28.8379 22.4593 -42.3919 29.0892 9.39411 27.8061 42.1484 -25.0601 37.5923 -14.2646 25.0692 140.042 -9.95025 13.5413 -48.1576 7.92217 -36.2582 -5.32459 44.8243 56.1495 -48.8691 -15.4558 0.544262 1.09424 30.1666 -37.976 2.30462 
88.2817 85.8814 -10.1354 9.69026 -5.2009 150.559 -17.1228 -22.8349 -9.95302 -12.2509 10.9061 19.3174 35.2044 35.6152 -13.6108 -25.3346 -44.4329 5.17892 1.44978 7.4819 -0.5006 9.59737 14.5996 -1.6064 0.733686 -11.4004 30.7333 -4.77083e-015 7.95139e-015 6.36111e-015 -5.81926 -27.3564 -13.0409 -40.1948 -22.0216 -56.3333 -31.6765 23.8087 -42.7582 29.1527 9.61864 28.4378 43.4157 -26.739 39.577 -15.0899 26.7591 140.115 -9.2629 13.3732 -49.3711 7.43413 -36.2486 -4.88609 45.4182 55.5127 -48.6031 -15.0524 -1.72394 0.780231 29.0222 -36.3147 2.68138 
85.8788 85.7379 -10.1868 9.57751 -5.84656 148.051 -17.1234 -23.9448 -9.89354 -12.4278 13.5544 20.3307 35.892 33.7237 -13.2745 -25.4564 -44.89 5.5955 1.47652 7.59597 -0.719078 9.30114 14.7813 -2.05963 0.147409 -12.0219 30.9402 -2.64834e-031 4.77083e-015 3.18055e-015 -11.1663 -32.526 -17.5162 -48.4898 -20.2348 -60.8041 -38.1108 26.043 -41.139 28.4054 9.5594 28.9369 45.5922 -27.4792 42.0912 -16.1831 27.897 140.635 -7.54323 12.8321 -51.663 6.84958 -36.4085 -4.27145 45.8045 55.545 -47.8239 -14.7642 -3.49368 0.546822 27.7448 -34.5165 3.03707 
83.5879 85.7106 -10.3902 9.29031 -6.26602 145.431 -17.2409 -24.6706 -9.2559 -12.8189 17.0344 21.3066 35.5797 31.0531 -12.2918 -25.9015 -45.3923 5.27988 1.54946 7.68813 -0.620146 8.88316 14.9102 -1.88067 -0.985591 -12.7335 30.408 -1.05934e-030 4.77083e-015 1.27222e-014 -18.4487 -37.6907 -21.7769 -58.5359 -17.1605 -63.3929 -47.2724 27.8425 -36.3206 27.0398 9.2474 29.2393 48.2036 -27.383 44.7626 -17.5803 27.9126 141.744 -4.80139 11.7881 -54.8457 6.23119 -36.6983 -3.52726 45.8943 56.0738 -46.6701 -14.7031 -4.48647 0.422401 26.6755 -33.0459 3.29523 
81.4566 85.7995 -10.7262 8.90959 -6.45784 142.751 -17.4712 -24.8471 -8.13381 -13.1886 20.9904 21.8923 34.1982 27.6342 -10.7399 -26.1923 -45.2618 4.36526 1.67855 7.74625 -0.261323 8.43144 14.979 -1.17009 -2.43796 -13.301 29.3294 -4.77083e-015 1.59028e-015 3.18055e-015 -26.7892 -42.3063 -25.354 -65.6753 -12.1184 -62.7648 -54.4588 28.443 -31.8468 25.3291 8.74893 29.2744 50.7746 -26.6344 47.3547 -19.2534 26.5429 143.23 -1.30558 10.1901 -58.4991 5.70266 -37.0281 -2.66799 45.5668 56.8977 -45.2279 -14.8322 -4.70359 0.399053 25.956 -32.069 3.45536 
79.5357 85.9802 -11.1527 8.51358 -6.4468 140.084 -17.8042 -24.3857 -6.7337 -13.333 25.0897 21.8184 31.9073 23.6247 -8.85336 -25.9917 -44.132 3.0417 1.83378 7.74021 0.283742 8.01928 14.9481 -0.0582979 -3.95163 -13.4152 27.9522 -1.59028e-015 -1.59028e-015 3.18055e-015 -34.7706 -46.189 -27.5505 -68.7445 -5.25094 -60.1996 -57.1349 28.895 -30.8199 23.5492 8.14827 28.9998 53.0437 -25.5677 49.8152 -21.1232 24.1003 144.615 2.34238 8.22927 -61.9962 5.39379 -37.2973 -1.69091 44.7125 57.8501 -43.5252 -15.0426 -4.33654 0.450904 25.5723 -31.5516 3.53724 
77.8774 86.2058 -11.5976 8.15494 -6.28967 137.482 -18.2016 -23.3441 -5.27995 -13.148 29.1308 20.9857 29.0129 19.2536 -6.91197 -25.144 -41.9627 1.52324 2.00965 7.65962 0.942748 7.69931 14.7703 1.30712 -5.28728 -12.8173 26.5329 -1.59028e-015 0 3.18055e-015 -40.8605 -49.4885 -27.7237 -69.4566 2.59341 -57.7354 -55.6819 29.5287 -33.0082 21.9008 7.52491 28.4357 55.0883 -24.7044 52.236 -23.1063 21.6109 145.405 5.27365 6.43674 -64.7369 5.42096 -37.4514 -0.607095 43.2851 58.8451 -41.5676 -15.2418 -3.65675 0.543695 25.4339 -31.3682 3.56136 
76.4725 86.4571 -11.9831 7.85027 -6.00958 134.999 -18.6579 -21.7626 -3.95263 -12.5905 32.8552 19.4198 25.8924 14.8376 -5.16289 -23.6484 -38.9192 0.00818246 2.13195 7.45972 1.64708 7.47514 14.3872 2.78581 -6.26972 -11.3979 25.2693 1.59028e-015 0 9.54166e-015 -43.9129 -52.5102 -25.5702 -68.7414 10.706 -56.391 -50.3949 29.806 -37.731 20.4757 6.93751 27.6748 57.2295 -24.581 54.7439 -25.1069 20.5274 145.323 6.6078 5.51584 -66.4165 5.78356 -37.4514 0.538138 41.202 59.8078 -39.265 -15.3452 -2.83583 0.652935 25.449 -31.3963 3.54461 
75.2603 86.7548 -12.2611 7.61723 -5.63514 132.676 -19.1555 -19.6732 -2.82027 -11.6126 36.0109 17.2038 22.8484 10.6759 -3.73684 -21.5931 -35.2239 -1.35718 2.1892 7.11332 2.34115 7.32895 13.7614 4.25522 -6.81948 -9.23776 24.2498 -1.59028e-015 3.18055e-015 -0 -43.3688 -55.4813 -21.1447 -65.7965 19.2407 -56.7022 -40.5661 28.6183 -44.8345 19.2723 6.42087 26.861 59.7133 -25.4061 57.3778 -26.9582 21.9811 144.315 5.85292 5.92468 -66.9989 6.42795 -37.2619 1.67157 38.3481 60.6388 -36.4469 -15.3108 -1.92096 0.768646 25.5548 -31.5531 3.49697 
74.1999 87.0998 -12.3886 7.45785 -5.20844 130.546 -19.6656 -17.2362 -1.84561 -10.1665 38.6482 14.47 20.0389 6.86755 -2.63339 -19.1201 -31.0976 -2.50194 2.21894 6.63702 2.97984 7.24776 12.8993 5.61877 -6.9547 -6.58867 23.452 -1.59028e-015 1.59028e-015 -6.36111e-015 -38.9581 -55.6597 -14.9073 -56.8738 27.2308 -62.5623 -25.7813 23.8161 -52.2087 18.2452 5.99245 26.148 62.3902 -26.9021 59.9859 -28.3752 26.0973 142.373 3.19246 7.56294 -66.4667 7.29518 -36.9054 2.69844 34.7421 61.2708 -33.0789 -15.1783 -0.932387 0.887182 25.709 -31.7869 3.41908 
73.2531 87.4891 -12.3394 7.35099 -4.76242 128.643 -20.1749 -14.6143 -0.956244 -8.19548 40.8791 11.3445 17.568 3.4443 -1.81156 -16.4267 -26.7932 -3.42085 2.23368 6.05771 3.53474 7.20427 11.84 6.81596 -6.76127 -3.80823 22.7848 -1.59028e-015 -3.97569e-015 -0 -32.6446 -55.9899 -8.10814 -41.9846 34.7427 -72.3723 -9.41142 15.4021 -53.7418 17.3579 5.66013 25.654 64.6829 -28.5514 62.1795 -28.8961 31.9583 139.395 -0.622748 9.83867 -64.7731 8.2878 -36.4301 3.5289 30.5275 61.6238 -29.2483 -15.0168 0.126573 1.01005 25.8709 -32.0507 3.30606 
72.3855 87.9176 -12.1066 7.26435 -4.33093 126.994 -20.6599 -11.9379 -0.0989463 -5.68497 42.7753 7.95763 15.5108 0.461854 -1.22482 -13.7633 -22.6333 -4.13716 2.23994 5.41436 3.99353 7.17341 10.6506 7.82013 -6.35302 -1.26805 22.1469 -1.32417e-031 7.95139e-016 9.54166e-015 -25.4075 -56.243 -1.44203 -26.3892 39.0698 -83.5778 2.94432 8.86102 -46.3287 16.6162 5.42634 25.4242 65.9084 -29.97 63.4367 -27.9205 38.1409 135.288 -4.68374 12.0394 -62.0202 9.29717 -35.8962 4.10585 25.9917 61.6114 -25.174 -14.8887 1.23957 1.13906 25.992 -32.2873 3.15525 
71.5674 88.3772 -11.6992 7.16111 -3.94638 125.608 -21.0786 -9.30577 0.734839 -2.72257 44.3511 4.48896 13.8993 -1.97308 -0.829157 -11.3958 -18.9788 -4.67034 2.23737 4.75211 4.35958 7.13773 9.41296 8.63389 -5.84295 0.739493 21.4689 3.97569e-016 0 6.36111e-015 -18.4395 -56.1711 4.39887 -16.4557 40.6963 -91.4882 9.08338 6.82236 -36.4066 16.0725 5.28846 25.4145 65.7072 -31.0407 63.3379 -25.1145 43.3349 130.345 -8.27891 13.6913 -58.5641 10.2209 -35.3653 4.41853 21.5357 61.17 -21.1738 -14.831 2.3707 1.27388 26.0239 -32.4339 2.97138 
70.7729 88.858 -11.1368 7.0092 -3.6335 124.467 -21.3732 -6.79455 1.51381 0.476476 45.5938 1.19402 12.7103 -3.7294 -0.585386 -9.54223 -16.1354 -5.02833 2.22536 4.11511 4.64828 7.09013 8.20896 9.28228 -5.33206 2.06812 20.7284 3.97569e-016 -1.59028e-015 -3.18055e-015 -12.7318 -55.8146 9.02893 -12.013 41.4279 -95.6446 11.1953 6.74656 -29.4211 15.8027 5.23829 25.5033 64.2048 -31.7793 61.7416 -21.0251 46.7461 125.646 -11.0128 14.6706 -54.9854 10.9795 -34.8863 4.50108 17.5693 60.2843 -17.5699 -14.8536 3.47923 1.41256 25.9312 -32.4386 2.76685 
69.9781 89.3496 -10.4441 6.79202 -3.40199 123.524 -21.486 -4.46786 2.18948 3.60238 46.5135 -1.62007 11.8839 -4.70428 -0.461434 -8.31875 -14.265 -5.21617 2.20955 3.54081 4.88139 7.03253 7.11099 9.8048 -4.90832 2.73799 19.9425 1.98785e-016 -1.39149e-015 -9.54166e-015 -8.78332 -55.3766 12.4873 -10.8791 41.8749 -97.3403 11.8586 6.84337 -26.5778 15.8678 5.26011 25.5317 61.8228 -32.1376 58.7847 -17.0849 48.1894 122.815 -12.7361 15.099 -51.9881 11.5308 -34.4822 4.4195 14.382 58.9934 -14.5795 -14.9478 4.53688 1.55303 25.6971 -32.2708 2.55633 
69.161 89.8413 -9.64513 6.51452 -3.24103 122.704 -21.3809 -2.37727 2.72456 6.33825 47.1707 -3.67414 11.3649 -4.87063 -0.432355 -7.71872 -13.35 -5.24558 2.20237 3.05755 5.08104 6.97017 6.17874 10.2462 -4.64343 2.90659 19.1467 -3.97569e-016 -7.95139e-016 -0 -6.67544 -55.0683 15.0606 -11.8784 42.1364 -97.3694 12.1302 6.68622 -27.3429 16.2789 5.3289 25.3584 59.0167 -31.903 54.7913 -14.7006 47.7857 123.016 -13.3995 15.1608 -50.2232 11.8755 -34.1423 4.25386 12.0644 57.3729 -12.2572 -15.0958 5.5357 1.69412 25.3215 -31.922 2.35065 
